<svg xmlns="http://www.w3.org/2000/svg" version="1.1" xmlns:xlink="http://www.w3.org/1999/xlink" xmlns:svgjs="http://svgjs.com/svgjs" width="512" height="512" x="0" y="0" viewBox="0 0 24 24" style="enable-background:new 0 0 512 512" xml:space="preserve" class=""><g><g xmlns="http://www.w3.org/2000/svg" id="Layer_79" data-name="Layer 79"><path d="m3 22h10.41a1 1 0 1 0 0-2h-9.41v-1a5.0059 5.0059 0 0 1 5-5h4a4.9633 4.9633 0 0 1 3 1 1 1 0 0 0 1.2-1.6 6.95 6.95 0 0 0 -4.2-1.4h-4a7.0081 7.0081 0 0 0 -7 7v2a1 1 0 0 0 1 1z" fill="#ffffff" data-original="#000000" class=""></path><path d="m15.5 6.5a4.5 4.5 0 1 0 -4.5 4.5 4.505 4.505 0 0 0 4.5-4.5zm-7 0a2.5 2.5 0 1 1 2.5 2.5 2.5026 2.5026 0 0 1 -2.5-2.5z" fill="#ffffff" data-original="#000000" class=""></path><path d="m20.293 16.293-2.293 2.2929-1.293-1.2929a1 1 0 0 0 -1.414 1.414l2 2a.9995.9995 0 0 0 1.414 0l3-3a1 1 0 0 0 -1.414-1.414z" fill="#ffffff" data-original="#000000" class=""></path></g></g></svg>