<?xml version="1.0" encoding="UTF-8" standalone="no"?>
<!DOCTYPE svg PUBLIC "-//W3C//DTD SVG 1.1//EN" "http://www.w3.org/Graphics/SVG/1.1/DTD/svg11.dtd">
<svg width="100%" height="100%" viewBox="0 0 18 21" version="1.1" xmlns="http://www.w3.org/2000/svg" xmlns:xlink="http://www.w3.org/1999/xlink" xml:space="preserve" xmlns:serif="http://www.serif.com/" style="fill-rule:evenodd;clip-rule:evenodd;stroke-linejoin:round;stroke-miterlimit:2;">
    <g transform="matrix(1,0,0,1,-1097,-3225)">
        <g transform="matrix(0.543949,0,0,0.374744,766.642,3280.01)">
            <g transform="matrix(0.0813418,0,0,0.118069,602.745,-148.835)">
                <g>
                    <path d="M405.333,149.333C393.63,149.333 384,158.964 384,170.667L384,409.408C382.735,431.716 363.437,449.083 341.12,448L170.88,448C148.563,449.083 129.265,431.716 128,409.408L128,170.667C128,158.964 118.37,149.333 106.667,149.333C94.964,149.333 85.333,158.964 85.333,170.667L85.333,409.408C86.593,455.127 125.156,491.758 170.88,490.667L341.12,490.667C386.844,491.758 425.407,455.127 426.667,409.408L426.667,170.667C426.667,158.964 417.036,149.333 405.333,149.333Z" style="fill:white;fill-rule:nonzero;"/>
                    <path d="M426.667,85.333L341.333,85.333L341.333,42.667C341.333,30.964 331.703,21.333 320,21.333L192,21.333C180.297,21.333 170.667,30.964 170.667,42.667L170.667,85.333L85.333,85.333C73.63,85.333 64,94.964 64,106.667C64,118.37 73.63,128 85.333,128L426.667,128C438.37,128 448,118.37 448,106.667C448,94.964 438.37,85.333 426.667,85.333ZM213.333,85.333L213.333,64L298.667,64L298.667,85.333L213.333,85.333Z" style="fill:white;fill-rule:nonzero;"/>
                    <path d="M234.667,362.667L234.667,213.333C234.667,201.63 225.036,192 213.333,192C201.63,192 192,201.63 192,213.333L192,362.667C192,374.37 201.63,384 213.333,384C225.036,384 234.667,374.37 234.667,362.667Z" style="fill:white;fill-rule:nonzero;"/>
                    <path d="M320,362.667L320,213.333C320,201.63 310.37,192 298.667,192C286.964,192 277.333,201.63 277.333,213.333L277.333,362.667C277.333,374.37 286.964,384 298.667,384C310.37,384 320,374.37 320,362.667Z" style="fill:white;fill-rule:nonzero;"/>
                </g>
            </g>
        </g>
    </g>
</svg>
