<?xml version="1.0" encoding="UTF-8" standalone="no"?>
<!DOCTYPE svg PUBLIC "-//W3C//DTD SVG 1.1//EN" "http://www.w3.org/Graphics/SVG/1.1/DTD/svg11.dtd">
<svg width="100%" height="100%" viewBox="0 0 22 19" version="1.1" xmlns="http://www.w3.org/2000/svg" xmlns:xlink="http://www.w3.org/1999/xlink" xml:space="preserve" xmlns:serif="http://www.serif.com/" style="fill-rule:evenodd;clip-rule:evenodd;stroke-linejoin:round;stroke-miterlimit:2;">
    <g transform="matrix(1,0,0,1,-1146,-3226)">
        <g transform="matrix(0.0411962,0,0,0.0411962,1138,3225.01)">
            <g transform="matrix(1,0,0,1,211.528,0)">
                <path d="M256,341.333C251.627,341.333 247.445,339.541 244.437,336.384L132.437,219.051C122.731,208.896 129.941,192 144,192L202.667,192L202.667,69.333C202.667,54.635 214.635,42.667 229.333,42.667L282.667,42.667C297.365,42.667 309.333,54.635 309.333,69.333L309.333,192L368,192C382.059,192 389.269,208.896 379.563,219.051L267.563,336.384C264.555,339.541 260.373,341.333 256,341.333Z" style="fill:white;fill-rule:nonzero;"/>
            </g>
            <g transform="matrix(1,0,0,1,211.528,0)">
                <path d="M474.667,469.333L37.333,469.333C16.747,469.333 0,452.587 0,432L0,421.333C0,400.747 16.747,384 37.333,384L474.667,384C495.253,384 512,400.747 512,421.333L512,432C512,452.587 495.253,469.333 474.667,469.333Z" style="fill:white;fill-rule:nonzero;"/>
            </g>
        </g>
    </g>
</svg>
