<?xml version="1.0" encoding="UTF-8" standalone="no"?>
<!DOCTYPE svg PUBLIC "-//W3C//DTD SVG 1.1//EN" "http://www.w3.org/Graphics/SVG/1.1/DTD/svg11.dtd">
<svg width="100%" height="100%" viewBox="0 0 513 509" version="1.1" xmlns="http://www.w3.org/2000/svg" xmlns:xlink="http://www.w3.org/1999/xlink" xml:space="preserve" xmlns:serif="http://www.serif.com/" style="fill-rule:evenodd;clip-rule:evenodd;stroke-linejoin:round;stroke-miterlimit:2;">
    <g transform="matrix(1,0,0,1,-4712,-6771)">
        <g transform="matrix(1,0,0,1,4712.55,6769.68)">
            <path d="M499.895,1.787L384.937,1.787C378.25,1.787 372.832,7.207 372.832,13.892L372.832,46.173C372.832,52.858 378.25,58.278 384.937,58.278L415.561,58.278L323.352,150.484C321.082,152.753 319.806,155.833 319.806,159.043C319.806,162.254 321.082,165.333 323.352,167.603L346.179,190.43C348.544,192.795 351.641,193.976 354.74,193.976C357.838,193.976 360.936,192.793 363.301,190.43L455.51,98.224L455.51,128.849C455.51,135.535 460.928,140.955 467.615,140.955L499.896,140.955C506.583,140.955 512.002,135.535 512.002,128.849L512.002,13.892C512,7.207 506.58,1.787 499.895,1.787Z" style="fill:white;fill-rule:nonzero;"/>
            <path d="M96.439,58.278L127.063,58.278C133.75,58.278 139.168,52.858 139.168,46.173L139.168,13.892C139.168,7.207 133.75,1.787 127.063,1.787L12.105,1.787C5.418,1.787 0,7.207 0,13.892L0,128.849C0,135.535 5.418,140.955 12.105,140.955L44.386,140.955C51.073,140.955 56.492,135.535 56.492,128.849L56.492,98.226L148.694,190.43C151.059,192.793 154.158,193.976 157.257,193.976C160.354,193.976 163.453,192.793 165.819,190.43L188.645,167.603C190.914,165.333 192.189,162.254 192.189,159.043C192.189,155.833 190.914,152.753 188.645,150.484L96.439,58.278Z" style="fill:white;fill-rule:nonzero;"/>
            <path d="M165.818,321.571C161.088,316.844 153.425,316.844 148.694,321.571L56.492,413.774L56.492,383.149C56.492,376.464 51.073,371.044 44.386,371.044L12.105,371.044C5.418,371.044 0,376.464 0,383.149L0,498.106C0,504.792 5.418,510.212 12.105,510.212L127.063,510.212C133.75,510.212 139.168,504.792 139.168,498.106L139.168,465.825C139.168,459.14 133.75,453.72 127.063,453.72L96.439,453.72L188.643,361.518C190.913,359.248 192.188,356.169 192.188,352.958C192.188,349.748 190.913,346.668 188.643,344.399L165.818,321.571Z" style="fill:white;fill-rule:nonzero;"/>
            <path d="M499.895,371.045L467.614,371.045C460.927,371.045 455.508,376.465 455.508,383.151L455.508,413.779L363.298,321.573C358.57,316.846 350.907,316.846 346.179,321.573L323.352,344.401C321.082,346.67 319.806,349.75 319.806,352.96C319.806,356.17 321.082,359.25 323.353,361.519L415.561,453.722L384.937,453.722C378.25,453.722 372.832,459.142 372.832,465.827L372.832,498.108C372.832,504.793 378.25,510.213 384.937,510.213L499.895,510.213C506.582,510.213 512,504.793 512,498.108L512,383.151C512,376.465 506.58,371.045 499.895,371.045Z" style="fill:white;fill-rule:nonzero;"/>
        </g>
    </g>
</svg>
