<?xml version="1.0" encoding="UTF-8" standalone="no"?>
<!DOCTYPE svg PUBLIC "-//W3C//DTD SVG 1.1//EN" "http://www.w3.org/Graphics/SVG/1.1/DTD/svg11.dtd">
<svg width="100%" height="100%" viewBox="0 0 13 13" version="1.1" xmlns="http://www.w3.org/2000/svg" xmlns:xlink="http://www.w3.org/1999/xlink" xml:space="preserve" xmlns:serif="http://www.serif.com/" style="fill-rule:evenodd;clip-rule:evenodd;stroke-linejoin:round;stroke-miterlimit:2;">
    <g transform="matrix(1,0,0,1,-315,-403)">
        <g transform="matrix(0.543949,0,0,0.374284,746.785,126.743)">
            <g transform="matrix(0.0445347,0,0,0.0647226,-793.46,739.453)">
                <g>
                    <path d="M463.748,48.251C399.412,-16.085 294.735,-16.084 230.399,48.252C186.454,92.197 171.19,156.958 190.218,215.713L4.396,401.536C1.583,404.349 0.001,408.157 0.001,412.142L0.001,497C0.001,505.291 6.71,512 15.001,512L99.859,512C103.843,512 107.652,510.418 110.464,507.605L131.675,486.379C134.912,483.142 136.494,478.601 135.967,474.045L133.33,451.252L164.912,448.278C172.09,447.604 177.759,441.935 178.433,434.757L181.407,403.175L204.2,405.826C208.433,406.397 212.696,404.976 215.904,402.135C219.097,399.279 220.928,395.206 220.928,390.929L220.928,363L248.35,363C252.334,363 256.143,361.418 258.955,358.605L297.422,320.647C356.162,339.69 419.803,325.576 463.748,281.601C528.084,217.266 528.084,112.587 463.748,48.251ZM421.313,154.321C403.764,171.87 375.229,171.87 357.68,154.321C340.131,136.772 340.131,108.237 357.68,90.688C375.229,73.139 403.764,73.139 421.313,90.688C438.862,108.237 438.861,136.772 421.313,154.321Z" style="fill:rgb(155,155,155);fill-rule:nonzero;"/>
                </g>
            </g>
        </g>
    </g>
</svg>
