<?xml version="1.0" encoding="UTF-8" standalone="no"?>
<!DOCTYPE svg PUBLIC "-//W3C//DTD SVG 1.1//EN" "http://www.w3.org/Graphics/SVG/1.1/DTD/svg11.dtd">
<svg width="100%" height="100%" viewBox="0 0 49 25" version="1.1" xmlns="http://www.w3.org/2000/svg" xmlns:xlink="http://www.w3.org/1999/xlink" xml:space="preserve" xmlns:serif="http://www.serif.com/" style="fill-rule:evenodd;clip-rule:evenodd;stroke-linejoin:round;stroke-miterlimit:2;">
    <g transform="matrix(1,0,0,1,-24,-11)">
        <g transform="matrix(0.543949,0,0,0.374284,760.642,117.743)">
            <g id="svg_2" transform="matrix(0.168598,0,0,0.245025,-1352.41,-283.047)">
                <path d="M302.838,108.723C302.838,109.715 303.151,110.289 303.725,110.289C304.195,110.237 304.612,110.028 304.978,109.767L467.671,4.176C470.419,2.254 473.713,1.266 477.066,1.357L512.82,1.357C518.3,1.357 522.006,5.011 522.006,10.491L522.006,78.763C522.006,87.01 520.179,91.812 512.872,96.196L469.497,122.294C469.065,122.594 468.561,122.774 468.036,122.816C467.514,122.816 466.992,122.398 466.992,120.884L466.992,41.234C466.992,40.295 466.731,39.668 466.105,39.668C465.646,39.721 465.212,39.902 464.852,40.19L345.951,117.44C343.237,119.266 340.053,120.258 336.817,120.206L258.002,120.206C252.469,120.206 248.815,116.552 248.815,111.02L248.815,12.631C248.815,11.901 248.502,11.222 247.876,11.222C247.419,11.28 246.986,11.46 246.623,11.744L168.173,58.824C167.391,59.346 167.182,59.712 167.182,60.077C167.182,60.39 167.338,60.703 167.86,61.277L223.918,117.283C224.649,118.014 225.171,118.588 225.171,119.214C225.171,119.736 224.336,120.154 223.344,120.154L172.714,120.154C168.748,120.154 165.668,119.58 163.528,117.44L129.549,83.513C129.289,83.201 128.91,83.012 128.505,82.991C128.137,83.008 127.778,83.115 127.461,83.304L70.673,117.44C67.228,119.527 64.879,120.102 61.486,120.102L9.239,120.102C3.654,120.154 0,116.448 0,110.967L0,44.001C0,35.702 1.827,30.952 9.186,26.567L52.822,0.365C53.164,0.141 53.561,0.015 53.97,0C54.649,0 55.014,0.679 55.014,2.192L55.014,91.864C55.014,92.803 55.223,93.221 55.901,93.221C56.371,93.169 56.789,92.96 57.206,92.699L204.606,4.019C207.424,2.088 210.869,1.148 214.314,1.305L293.651,1.305C299.132,1.305 302.838,4.959 302.838,10.439L302.785,108.723L302.838,108.723Z" style="fill:white;fill-rule:nonzero;"/>
            </g>
            <g transform="matrix(1.83841,0,0,2.67177,-1376.13,-7592.72)">
                <text x="11.568px" y="2759.17px" style="font-family:'Roboto-Black', 'Roboto';font-weight:900;font-size:12.5px;fill:white;">KAL<tspan x="34.463px " y="2759.17px ">O</tspan></text>
            </g>
        </g>
    </g>
</svg>
