<?xml version="1.0" encoding="UTF-8" standalone="no"?>
<!DOCTYPE svg PUBLIC "-//W3C//DTD SVG 1.1//EN" "http://www.w3.org/Graphics/SVG/1.1/DTD/svg11.dtd">
<svg width="100%" height="100%" viewBox="0 0 18 18" version="1.1" xmlns="http://www.w3.org/2000/svg" xmlns:xlink="http://www.w3.org/1999/xlink" xml:space="preserve" xmlns:serif="http://www.serif.com/" style="fill-rule:evenodd;clip-rule:evenodd;stroke-linejoin:round;stroke-miterlimit:2;">
    <g transform="matrix(1,0,0,1,-2315,-2214)">
        <g transform="matrix(0.0395717,0,0,0.0395717,2314.23,2212.91)">
            <g id="layer1" transform="matrix(1,0,0,1,0,-23435.1)">
                <path id="circle2017" d="M233.376,23476.3C127.59,23476.3 41.418,23562.5 41.418,23668.2C41.418,23774 127.59,23860.4 233.376,23860.4C278.56,23860.4 320.116,23844.5 352.959,23818.2L432.918,23898.2C436.897,23902 442.201,23904.1 447.713,23904.1C459.442,23904.1 469.093,23894.5 469.093,23882.7C469.093,23877.2 466.969,23871.9 463.168,23868L383.209,23788C409.522,23755.1 425.376,23713.5 425.376,23668.2C425.376,23562.5 339.162,23476.3 233.376,23476.3ZM233.376,23519C316.103,23519 382.668,23585.5 382.668,23668.2C382.668,23751 316.103,23817.7 233.376,23817.7C150.649,23817.7 84.084,23751 84.084,23668.2C84.084,23585.5 150.649,23519 233.376,23519Z" style="fill:white;fill-rule:nonzero;"/>
            </g>
        </g>
    </g>
</svg>
