<?xml version="1.0" encoding="UTF-8" standalone="no"?>
<!DOCTYPE svg PUBLIC "-//W3C//DTD SVG 1.1//EN" "http://www.w3.org/Graphics/SVG/1.1/DTD/svg11.dtd">
<svg width="100%" height="100%" viewBox="0 0 513 492" version="1.1" xmlns="http://www.w3.org/2000/svg" xmlns:xlink="http://www.w3.org/1999/xlink" xml:space="preserve" xmlns:serif="http://www.serif.com/" style="fill-rule:evenodd;clip-rule:evenodd;stroke-linejoin:round;stroke-miterlimit:2;">
    <g transform="matrix(1,0,0,1,-4715,-6786)">
        <g transform="matrix(1,0,0,1,4715.81,6785.88)">
            <path d="M510.665,186.401C507.314,176.033 498.118,168.67 487.239,167.689L339.462,154.271L281.027,17.498C276.718,7.474 266.905,0.986 256.003,0.986C245.1,0.986 235.287,7.474 230.979,17.521L172.543,154.271L24.743,167.689C13.883,168.693 4.711,176.033 1.34,186.401C-2.031,196.768 1.082,208.139 9.297,215.308L120.999,313.271L88.061,458.365C85.651,469.033 89.791,480.06 98.643,486.459C103.401,489.897 108.968,491.647 114.581,491.647C119.421,491.647 124.222,490.342 128.531,487.764L256.003,411.578L383.428,487.764C392.752,493.373 404.506,492.862 413.339,486.459C422.194,480.041 426.331,469.009 423.921,458.365L390.983,313.271L502.685,215.327C510.9,208.139 514.037,196.788 510.665,186.401Z" style="fill:rgb(255,193,7);fill-rule:nonzero;"/>
        </g>
    </g>
</svg>
