<?xml version="1.0" encoding="UTF-8" standalone="no"?>
<!DOCTYPE svg PUBLIC "-//W3C//DTD SVG 1.1//EN" "http://www.w3.org/Graphics/SVG/1.1/DTD/svg11.dtd">
<svg width="100%" height="100%" viewBox="0 0 11 14" version="1.1" xmlns="http://www.w3.org/2000/svg" xmlns:xlink="http://www.w3.org/1999/xlink" xml:space="preserve" xmlns:serif="http://www.serif.com/" style="fill-rule:evenodd;clip-rule:evenodd;stroke-linejoin:round;stroke-miterlimit:2;">
    <g transform="matrix(1,0,0,1,-316,-334)">
        <g transform="matrix(0.543949,0,0,0.374284,746.785,126.743)">
            <g transform="matrix(0.043949,0,0,0.0638714,-791.688,556.184)">
                <g>
                    <path d="M210.352,246.632C244.234,246.632 273.574,234.48 297.547,210.503C321.519,186.531 333.672,157.199 333.672,123.312C333.672,89.437 321.519,60.101 297.543,36.121C273.566,12.152 244.231,0 210.352,0C176.465,0 147.133,12.152 123.161,36.125C99.188,60.097 87.032,89.433 87.032,123.312C87.032,157.199 99.188,186.534 123.165,210.507C147.141,234.476 176.477,246.632 210.352,246.632Z" style="fill:rgb(155,155,155);fill-rule:nonzero;"/>
                    <path d="M426.128,393.702C425.437,383.725 424.038,372.842 421.98,361.35C419.902,349.772 417.226,338.827 414.023,328.823C410.714,318.483 406.214,308.272 400.652,298.487C394.878,288.331 388.097,279.487 380.488,272.21C372.531,264.597 362.789,258.476 351.523,254.011C340.297,249.569 327.855,247.319 314.547,247.319C309.32,247.319 304.265,249.464 294.504,255.819C288.496,259.737 281.469,264.268 273.625,269.28C266.918,273.554 257.832,277.558 246.609,281.182C235.66,284.725 224.543,286.522 213.57,286.522C202.598,286.522 191.485,284.725 180.524,281.182C169.313,277.561 160.227,273.558 153.528,269.284C145.758,264.319 138.727,259.788 132.629,255.815C122.879,249.46 117.821,247.315 112.594,247.315C99.282,247.315 86.844,249.569 75.622,254.015C64.364,258.472 54.618,264.593 46.653,272.214C39.048,279.495 32.263,288.335 26.497,298.487C20.938,308.272 16.438,318.479 13.126,328.827C9.927,338.831 7.251,349.772 5.173,361.35C3.114,372.827 1.716,383.713 1.024,393.713C0.345,403.51 0.001,413.678 0.001,423.948C0.001,450.674 8.497,472.311 25.251,488.268C41.798,504.014 63.692,512.002 90.317,512.002L336.847,512.002C363.472,512.002 385.359,504.018 401.91,488.268C418.667,472.322 427.163,450.682 427.163,423.944C427.159,413.627 426.812,403.452 426.128,393.702Z" style="fill:rgb(155,155,155);fill-rule:nonzero;"/>
                </g>
            </g>
        </g>
    </g>
</svg>
